<svg width="1002" height="493" viewBox="0 0 1002 493" fill="none" xmlns="http://www.w3.org/2000/svg">
<path d="M214.468 489.553C211.549 489.553 208.828 489.084 206.305 488.148C203.819 487.174 201.656 485.805 199.818 484.039C197.98 482.273 196.539 480.201 195.494 477.823C194.485 475.444 193.98 472.832 193.98 469.985C193.98 467.138 194.485 464.525 195.494 462.146C196.539 459.768 197.98 457.696 199.818 455.93C201.692 454.164 203.873 452.813 206.359 451.876C208.846 450.903 211.567 450.416 214.522 450.416C217.801 450.416 220.756 450.993 223.387 452.146C226.054 453.263 228.288 454.921 230.09 457.119L224.468 462.309C223.171 460.831 221.729 459.732 220.144 459.011C218.558 458.254 216.828 457.876 214.954 457.876C213.188 457.876 211.567 458.164 210.089 458.741C208.612 459.317 207.332 460.146 206.251 461.227C205.17 462.309 204.323 463.588 203.71 465.065C203.134 466.543 202.846 468.183 202.846 469.985C202.846 471.786 203.134 473.426 203.71 474.904C204.323 476.381 205.17 477.661 206.251 478.742C207.332 479.823 208.612 480.652 210.089 481.228C211.567 481.805 213.188 482.093 214.954 482.093C216.828 482.093 218.558 481.733 220.144 481.012C221.729 480.255 223.171 479.12 224.468 477.606L230.09 482.796C228.288 484.994 226.054 486.67 223.387 487.823C220.756 488.976 217.783 489.553 214.468 489.553ZM239.247 488.904V451.065H248.004V481.769H266.978V488.904H239.247ZM270.352 488.904L287.218 451.065H295.867L312.787 488.904H303.597L289.759 455.497H293.218L279.326 488.904H270.352ZM278.785 480.796L281.11 474.147H300.57L302.948 480.796H278.785ZM319.956 488.904V451.065H328.713V488.904H319.956ZM340.937 488.904V451.065H348.18L364.289 477.769H360.451L376.289 451.065H383.479L383.587 488.904H375.371L375.316 463.66H376.83L364.181 484.904H360.235L347.315 463.66H349.153V488.904H340.937ZM395.808 488.904V451.065H404.565V488.904H395.808ZM416.789 488.904V451.065H424.032L446.358 478.309H442.844V451.065H451.493V488.904H444.303L421.924 461.66H425.438V488.904H416.789ZM470.662 489.553C468.104 489.553 465.743 489.084 463.581 488.148C461.455 487.174 459.707 485.805 458.337 484.039L463.203 478.201C464.248 479.571 465.347 480.616 466.5 481.336C467.653 482.021 468.897 482.363 470.23 482.363C473.798 482.363 475.582 480.273 475.582 476.093V458.092H462.284V451.065H484.285V475.606C484.285 480.291 483.131 483.787 480.825 486.093C478.519 488.4 475.131 489.553 470.662 489.553ZM512.989 489.553C507.62 489.553 503.421 488.057 500.394 485.066C497.367 482.075 495.854 477.805 495.854 472.255V451.065H504.611V471.931C504.611 475.534 505.349 478.129 506.827 479.715C508.305 481.3 510.377 482.093 513.043 482.093C515.71 482.093 517.782 481.3 519.26 479.715C520.738 478.129 521.476 475.534 521.476 471.931V451.065H530.125V472.255C530.125 477.805 528.612 482.075 525.585 485.066C522.557 488.057 518.359 489.553 512.989 489.553ZM542.022 488.904V451.065H558.401C561.789 451.065 564.708 451.623 567.159 452.741C569.609 453.822 571.501 455.389 572.835 457.443C574.168 459.498 574.835 461.948 574.835 464.795C574.835 467.606 574.168 470.039 572.835 472.093C571.501 474.111 569.609 475.66 567.159 476.742C564.708 477.823 561.789 478.363 558.401 478.363H546.887L550.78 474.525V488.904H542.022ZM566.077 488.904L556.618 475.174H565.969L575.537 488.904H566.077ZM550.78 475.498L546.887 471.39H557.915C560.618 471.39 562.636 470.813 563.969 469.66C565.303 468.471 565.969 466.849 565.969 464.795C565.969 462.705 565.303 461.083 563.969 459.93C562.636 458.777 560.618 458.2 557.915 458.2H546.887L550.78 454.038V475.498ZM593.894 488.904V473.444L595.894 478.742L579.245 451.065H588.543L601.3 472.309H595.948L608.76 451.065H617.355L600.705 478.742L602.651 473.444V488.904H593.894ZM632.054 468.093H650.217V475.12H632.054V468.093ZM632.703 488.904H623.945V451.065H652.541V458.092H632.703V488.904ZM678.525 489.553C673.155 489.553 668.957 488.057 665.93 485.066C662.902 482.075 661.389 477.805 661.389 472.255V451.065H670.146V471.931C670.146 475.534 670.885 478.129 672.362 479.715C673.84 481.3 675.912 482.093 678.579 482.093C681.245 482.093 683.318 481.3 684.795 479.715C686.273 478.129 687.012 475.534 687.012 471.931V451.065H695.661V472.255C695.661 477.805 694.147 482.075 691.12 485.066C688.093 488.057 683.894 489.553 678.525 489.553ZM707.558 488.904V451.065H714.801L737.126 478.309H733.613V451.065H742.262V488.904H735.072L712.693 461.66H716.207V488.904H707.558ZM754.458 488.904V451.065H771.648C775.756 451.065 779.378 451.858 782.513 453.443C785.649 454.993 788.099 457.173 789.865 459.984C791.631 462.795 792.514 466.129 792.514 469.985C792.514 473.805 791.631 477.138 789.865 479.985C788.099 482.796 785.649 484.994 782.513 486.58C779.378 488.129 775.756 488.904 771.648 488.904H754.458ZM763.215 481.715H771.215C773.738 481.715 775.918 481.246 777.756 480.309C779.63 479.336 781.072 477.967 782.081 476.201C783.126 474.435 783.648 472.363 783.648 469.985C783.648 467.57 783.126 465.498 782.081 463.768C781.072 462.002 779.63 460.651 777.756 459.714C775.918 458.741 773.738 458.254 771.215 458.254H763.215V481.715ZM814.794 489.553C811.767 489.553 808.866 489.157 806.091 488.364C803.316 487.535 801.082 486.472 799.388 485.174L802.361 478.58C803.983 479.733 805.893 480.688 808.091 481.445C810.326 482.165 812.578 482.526 814.848 482.526C816.578 482.526 817.966 482.363 819.011 482.039C820.092 481.679 820.885 481.192 821.389 480.58C821.894 479.967 822.146 479.264 822.146 478.471C822.146 477.462 821.75 476.67 820.957 476.093C820.164 475.48 819.119 474.994 817.821 474.633C816.524 474.237 815.083 473.877 813.497 473.552C811.947 473.192 810.38 472.759 808.794 472.255C807.244 471.75 805.821 471.102 804.524 470.309C803.226 469.516 802.163 468.471 801.334 467.174C800.541 465.876 800.145 464.219 800.145 462.2C800.145 460.038 800.722 458.074 801.875 456.308C803.064 454.506 804.83 453.083 807.172 452.038C809.551 450.957 812.524 450.416 816.092 450.416C818.47 450.416 820.813 450.704 823.119 451.281C825.425 451.822 827.461 452.65 829.227 453.768L826.524 460.417C824.759 459.407 822.993 458.669 821.227 458.2C819.461 457.696 817.731 457.443 816.038 457.443C814.344 457.443 812.956 457.642 811.875 458.038C810.794 458.434 810.019 458.957 809.551 459.606C809.082 460.218 808.848 460.939 808.848 461.768C808.848 462.741 809.244 463.534 810.037 464.146C810.83 464.723 811.875 465.192 813.173 465.552C814.47 465.912 815.893 466.273 817.443 466.633C819.029 466.993 820.596 467.408 822.146 467.876C823.732 468.345 825.173 468.975 826.47 469.768C827.768 470.561 828.813 471.606 829.606 472.904C830.435 474.201 830.849 475.841 830.849 477.823C830.849 479.949 830.254 481.895 829.065 483.661C827.876 485.427 826.092 486.85 823.714 487.931C821.371 489.012 818.398 489.553 814.794 489.553ZM843.727 489.337C842.285 489.337 841.042 488.85 839.997 487.877C838.988 486.868 838.483 485.589 838.483 484.039C838.483 482.49 838.988 481.246 839.997 480.309C841.042 479.336 842.285 478.85 843.727 478.85C845.204 478.85 846.448 479.336 847.457 480.309C848.466 481.246 848.97 482.49 848.97 484.039C848.97 485.589 848.466 486.868 847.457 487.877C846.448 488.85 845.204 489.337 843.727 489.337ZM875.576 489.553C872.657 489.553 869.936 489.084 867.414 488.148C864.927 487.174 862.765 485.805 860.927 484.039C859.089 482.273 857.647 480.201 856.602 477.823C855.593 475.444 855.089 472.832 855.089 469.985C855.089 467.138 855.593 464.525 856.602 462.146C857.647 459.768 859.089 457.696 860.927 455.93C862.801 454.164 864.981 452.813 867.468 451.876C869.954 450.903 872.675 450.416 875.63 450.416C878.91 450.416 881.865 450.993 884.495 452.146C887.162 453.263 889.397 454.921 891.198 457.119L885.577 462.309C884.279 460.831 882.838 459.732 881.252 459.011C879.666 458.254 877.937 457.876 876.063 457.876C874.297 457.876 872.675 458.164 871.197 458.741C869.72 459.317 868.441 460.146 867.359 461.227C866.278 462.309 865.431 463.588 864.819 465.065C864.242 466.543 863.954 468.183 863.954 469.985C863.954 471.786 864.242 473.426 864.819 474.904C865.431 476.381 866.278 477.661 867.359 478.742C868.441 479.823 869.72 480.652 871.197 481.228C872.675 481.805 874.297 482.093 876.063 482.093C877.937 482.093 879.666 481.733 881.252 481.012C882.838 480.255 884.279 479.12 885.577 477.606L891.198 482.796C889.397 484.994 887.162 486.67 884.495 487.823C881.865 488.976 878.892 489.553 875.576 489.553ZM917.943 489.553C914.952 489.553 912.177 489.066 909.618 488.093C907.096 487.12 904.897 485.751 903.023 483.985C901.185 482.219 899.744 480.147 898.699 477.769C897.69 475.39 897.185 472.795 897.185 469.985C897.185 467.174 897.69 464.579 898.699 462.2C899.744 459.822 901.203 457.75 903.077 455.984C904.951 454.218 907.15 452.849 909.672 451.876C912.195 450.903 914.934 450.416 917.889 450.416C920.88 450.416 923.619 450.903 926.105 451.876C928.628 452.849 930.808 454.218 932.646 455.984C934.52 457.75 935.98 459.822 937.025 462.2C938.07 464.543 938.592 467.138 938.592 469.985C938.592 472.795 938.07 475.408 937.025 477.823C935.98 480.201 934.52 482.273 932.646 484.039C930.808 485.769 928.628 487.12 926.105 488.093C923.619 489.066 920.898 489.553 917.943 489.553ZM917.889 482.093C919.583 482.093 921.132 481.805 922.538 481.228C923.979 480.652 925.24 479.823 926.322 478.742C927.403 477.661 928.232 476.381 928.808 474.904C929.421 473.426 929.727 471.786 929.727 469.985C929.727 468.183 929.421 466.543 928.808 465.065C928.232 463.588 927.403 462.309 926.322 461.227C925.277 460.146 924.033 459.317 922.592 458.741C921.15 458.164 919.583 457.876 917.889 457.876C916.195 457.876 914.627 458.164 913.186 458.741C911.78 459.317 910.537 460.146 909.456 461.227C908.375 462.309 907.528 463.588 906.915 465.065C906.339 466.543 906.05 468.183 906.05 469.985C906.05 471.75 906.339 473.39 906.915 474.904C907.528 476.381 908.357 477.661 909.402 478.742C910.483 479.823 911.744 480.652 913.186 481.228C914.627 481.805 916.195 482.093 917.889 482.093ZM948.417 488.904V451.065H955.661L971.77 477.769H967.932L983.77 451.065H990.96L991.068 488.904H982.851L982.797 463.66H984.311L971.661 484.904H967.715L954.796 463.66H956.634V488.904H948.417Z" fill="#EBC351"/>
<path d="M575.545 68.7009V1.03735H412.306C117.613 1.03735 119.176 399.896 412.306 399.896H575.545V332.232H416.58C212.877 332.232 214.303 68.7009 416.58 68.7009H575.545Z" fill="#004227"/>
<path d="M612.81 399.896V1.03735H683.323V399.896H612.81Z" fill="#004227"/>
<path d="M721.784 399.896V1.03735H792.297H1000.99V68.7009H792.297V147.048H1000.99V214.712H792.297V399.896H721.784Z" fill="#004227"/>
<path d="M575.545 68.7009V1.03735H412.306C117.613 1.03735 119.176 399.896 412.306 399.896H575.545V332.232H416.58C212.877 332.232 214.303 68.7009 416.58 68.7009H575.545Z" stroke="#004227" stroke-width="1.42449"/>
<path d="M612.81 399.896V1.03735H683.323V399.896H612.81Z" stroke="#004227" stroke-width="1.42449"/>
<path d="M721.784 399.896V1.03735H792.297H1000.99V68.7009H792.297V147.048H1000.99V214.712H792.297V399.896H721.784Z" stroke="#004227" stroke-width="1.42449"/>
<path d="M0.986328 1.03729V35.1745H191.873V1.03729H0.986328Z" fill="#004227"/>
<path d="M150.494 86.3803H0.986328L0.986331 120.518H144.574C144.574 112.812 158.409 98.9591 171.601 97.4724L171.602 86.3803L150.494 86.3803Z" fill="#004227"/>
<path d="M181.738 43.7088H0.986328V77.846H181.738V43.7088Z" fill="#EBC351"/>
<path d="M144.573 129.052H102.342V492.613H144.573V129.052Z" fill="#004227"/>
<path d="M93.8957 129.052H51.6641V492.613H93.8957V129.052Z" fill="#004227"/>
<path d="M43.2179 129.052H0.986328V492.613H43.2179V129.052Z" fill="#004227"/>
</svg>
